<svg xmlns="http://www.w3.org/2000/svg" width="512" height="512" viewBox="0 0 512 512" version="1.1">
	<path d="M 136.500 0.659 C 121.719 1.852, 108.945 3.341, 99 5.030 C 49.485 13.440, 14.335 31.326, 3.347 53.702 L 0.500 59.500 0.500 256 L 0.500 452.500 3.411 458.500 C 7.319 466.556, 19.057 478.034, 29.870 484.372 C 50.192 496.284, 78.919 504.769, 115 509.518 C 131.660 511.710, 173.423 512.565, 192 511.094 C 258.182 505.853, 306.188 486.399, 320.621 458.970 L 323.500 453.500 323.811 427.250 L 324.121 401 346.484 401 L 368.847 401 371.923 403.589 L 375 406.178 375.006 434.839 C 375.009 451.260, 375.447 465.070, 376.033 467.177 C 377.939 474.043, 382.997 480.198, 389.425 483.478 L 395.351 486.500 420.068 486.826 L 444.786 487.152 446.444 491.493 C 448.826 497.730, 454.893 504.122, 462.179 508.073 C 468.119 511.293, 469.073 511.500, 478 511.495 C 486.449 511.491, 488.085 511.183, 492.784 508.711 C 499.830 505.005, 505.624 499.032, 508.852 492.148 C 511.113 487.326, 511.496 485.183, 511.470 477.500 C 511.434 466.554, 509.191 461.127, 501.508 453.404 C 494.342 446.201, 487.344 443.676, 476 444.202 C 468.957 444.529, 466.583 445.096, 462.152 447.511 C 455.698 451.027, 448.871 458.364, 446.351 464.493 L 444.500 468.993 421.361 468.996 C 400.074 469, 398.033 468.847, 395.861 467.090 L 393.500 465.181 392.986 434.340 C 392.421 400.412, 392.327 399.859, 385.882 392.519 C 384.030 390.409, 380.261 387.634, 377.507 386.351 C 372.698 384.112, 371.541 384.019, 348.250 384.010 L 324 384 324 324.500 L 324 265 384.364 265 L 444.728 265 446.539 269.750 C 449.147 276.588, 457.969 285.096, 465.295 287.837 C 472.218 290.428, 482.559 290.711, 489.072 288.489 C 498.463 285.286, 508.734 274.420, 510.804 265.500 C 511.187 263.850, 511.728 304.575, 512.008 356 C 512.337 416.591, 512.515 381.041, 512.515 255 C 512.515 125.696, 512.343 92.176, 512 155 C 511.717 206.975, 511.376 248.663, 511.242 247.640 C 510.790 244.165, 504.698 233.942, 501.305 230.963 C 499.447 229.331, 495.580 226.762, 492.713 225.253 C 488.093 222.821, 486.420 222.509, 478 222.506 C 470.317 222.502, 467.588 222.922, 463.734 224.702 C 457.285 227.678, 448.797 236.346, 446.538 242.261 L 444.728 247 384.353 247 L 323.978 247 324.239 204.750 L 324.500 162.500 350 162 C 378.311 161.445, 378.347 161.437, 385.699 153.816 C 392.519 146.748, 392.468 147.141, 392.801 99.511 C 393.096 57.269, 393.138 56.482, 395.225 54.261 C 397.314 52.037, 397.735 52, 420.930 52 L 444.512 52 446.693 56.750 C 450.115 64.203, 455.338 69.549, 462.771 73.208 C 468.747 76.150, 470.364 76.500, 477.979 76.500 C 485.106 76.500, 487.424 76.067, 492.148 73.852 C 499.340 70.480, 505.480 64.340, 508.852 57.148 C 511.107 52.338, 511.498 50.165, 511.485 42.500 C 511.471 34.546, 511.127 32.821, 508.526 27.655 C 497.749 6.255, 469.083 2.093, 453.079 19.604 C 450.417 22.516, 447.404 26.919, 446.383 29.390 L 444.525 33.881 419.013 34.190 L 393.500 34.500 388.824 37.249 C 386.252 38.761, 382.751 41.686, 381.045 43.749 C 375.264 50.739, 375 53.131, 375 98.571 C 375 137.641, 374.901 139.901, 373.090 142.139 C 371.194 144.483, 371.005 144.502, 347.630 144.801 L 324.080 145.102 323.790 101.801 L 323.500 58.500 320.622 53 C 316.719 45.541, 304.298 33.587, 294.471 27.832 C 270.581 13.842, 234.193 4.325, 192.050 1.046 C 179.831 0.096, 146.369 -0.138, 136.500 0.659 M 131.500 18.614 C 94.726 22.241, 67.054 29.003, 45.073 39.731 C 35.630 44.340, 32.403 46.540, 26.481 52.404 C 20.715 58.113, 19.090 60.414, 18.161 64.178 C 16.773 69.809, 17.305 71.444, 21.823 75.438 C 54.498 104.314, 140.449 118.235, 216.837 107.024 C 242.969 103.189, 264.090 97.059, 282.500 87.968 C 295.482 81.557, 305.662 74.193, 306.576 70.552 C 306.892 69.296, 306.665 66.469, 306.072 64.269 C 302.047 49.319, 274.657 33.855, 237.408 25.500 C 213.062 20.040, 200.870 18.830, 167 18.514 C 149.675 18.352, 133.700 18.397, 131.500 18.614 M 470.053 28.223 C 455.026 36.272, 460.339 59, 477.247 59 C 487.263 59, 493.105 53.701, 493.808 43.976 C 494.298 37.209, 492.607 33.327, 487.459 29.401 C 482.403 25.544, 475.879 25.103, 470.053 28.223 M 469 43.039 L 469 52.078 477.750 51.789 L 486.500 51.500 486.789 42.750 L 487.078 34 478.039 34 L 469 34 469 43.039 M 0.490 256 C 0.490 362.975, 0.607 406.737, 0.750 353.250 C 0.893 299.762, 0.893 212.237, 0.750 158.750 C 0.607 105.262, 0.490 149.025, 0.490 256 M 17.100 148.250 C 17.155 174.238, 17.511 196.621, 17.893 197.991 C 18.892 201.580, 28.948 209.274, 40.182 215.045 C 92.373 241.854, 193.464 246.445, 259.379 225 C 278.594 218.749, 296.898 209.079, 304.260 201.290 L 307.019 198.370 306.760 149.683 L 306.500 100.995 301.500 104.585 C 289.794 112.989, 267.644 122.297, 247.078 127.454 C 236.628 130.074, 218.197 133.281, 202.500 135.209 C 186.635 137.159, 134.595 136.823, 117.500 134.661 C 77.091 129.550, 43.887 119.163, 24.390 105.534 C 20.823 103.040, 17.701 101, 17.452 101 C 17.203 101, 17.045 122.263, 17.100 148.250 M 472.784 240.164 C 468.104 241.447, 462.336 247.692, 461.445 252.440 C 460.310 258.490, 461.786 263.049, 466.359 267.622 C 472.017 273.280, 477.806 274.300, 484.737 270.862 C 491.251 267.630, 494 263.244, 494 256.084 C 494 244.483, 484.108 237.060, 472.784 240.164 M 469 255.961 L 469 265 478.039 265 L 487.078 265 486.789 256.250 L 486.500 247.500 477.750 247.211 L 469 246.922 469 255.961 M 469.960 463.303 C 464.957 465.948, 461 472.302, 461 477.689 C 461 488.022, 471.247 496.349, 481.174 494.084 C 489.336 492.221, 494 486.098, 494 477.247 C 494 470.914, 491.031 466.282, 485.030 463.250 C 479.374 460.393, 475.437 460.406, 469.960 463.303 M 469 478.039 L 469 487.078 477.750 486.789 L 486.500 486.500 486.789 477.750 L 487.078 469 478.039 469 L 469 469 469 478.039" stroke="none" fill="black" fill-rule="evenodd"/>
</svg>